<?xml version="1.0" encoding="utf-8"?>
<!-- Generator: Adobe Illustrator 19.0.1, SVG Export Plug-In . SVG Version: 6.00 Build 0)  -->
<svg version="1.1" xmlns="http://www.w3.org/2000/svg" xmlns:xlink="http://www.w3.org/1999/xlink" x="0px" y="0px"
	 viewBox="0 0 226.1 226.1" style="enable-background:new 0 0 226.1 226.1;" xml:space="preserve">
<style type="text/css">
	.st0{fill:#FFFFFF;}
	.st1{fill:#69A0A2;}
	.st2{display:none;}
	.st3{display:inline;}
	.st4{fill:#7B7C7A;}
</style>
<g id="Laag_1">
	<g>
		<g>
			<g>
				<path class="st0" d="M210.5,153.4c18.6-23.6,18.6-57.1,0-80.7c-3.5-29.9-27.2-53.5-57.1-57.1C129.8-3,96.3-3,72.7,15.6
					c-29.9,3.5-53.5,27.2-57.1,57.1C-3,96.3-3,129.8,15.6,153.4c3.5,29.9,27.2,53.5,57.1,57.1c23.6,18.6,57.1,18.6,80.7,0
					C183.3,207,207,183.3,210.5,153.4z"/>
				<path class="st1" d="M113.1,226.1c-14.4,0-28.9-4.7-41-14.1c-30.4-3.8-54.2-27.5-58-58c-18.8-24.2-18.8-57.8,0-82
					c3.8-30.4,27.5-54.2,58-58c24.2-18.8,57.8-18.8,82,0c30.4,3.8,54.2,27.5,58,58c18.8,24.2,18.8,57.8,0,82
					c-3.8,30.4-27.5,54.2-58,58C142,221.4,127.5,226.1,113.1,226.1z M113.1,3.2c-13.9,0-27.8,4.6-39.4,13.7l-0.4,0.3l-0.4,0.1
					c-29.3,3.5-52.2,26.4-55.7,55.7l-0.1,0.4l-0.3,0.4c-18.3,23.2-18.3,55.6,0,78.7l0.3,0.4l0.1,0.4c3.5,29.3,26.4,52.2,55.7,55.7
					l0.4,0.1l0.4,0.3c23.2,18.3,55.6,18.3,78.7,0l0.4-0.3l0.4-0.1c29.3-3.5,52.2-26.4,55.7-55.7l0.1-0.4l0.3-0.4
					c18.3-23.2,18.3-55.6,0-78.7l-0.3-0.4l-0.1-0.4c-3.5-29.3-26.4-52.2-55.7-55.7l-0.4-0.1l-0.4-0.3C140.8,7.7,127,3.2,113.1,3.2z"
					/>
			</g>
			<path class="st1" d="M205.1,151.6c17.6-22.3,17.6-53.9,0-76.2c-3.3-28.2-25.7-50.6-53.9-53.9C128.9,4,97.3,4,75,21.6
				c-28.2,3.3-50.6,25.7-53.9,53.9c-17.6,22.3-17.6,53.9,0,76.2c3.3,28.2,25.7,50.6,53.9,53.9c22.3,17.6,53.9,17.6,76.2,0
				C179.4,202.2,201.7,179.8,205.1,151.6z"/>
		</g>
		<path class="st0" d="M161.7,56.8c-1-0.1-1.8-0.2-2.3-0.2c-0.6,0-1.1,0-1.6,0c-2.9,0-5.3,0.9-7.2,2.8c-1.9,1.9-2.9,4.8-2.9,8.8v39
			h-28.2V69.8h-13.3v37.4H78.5V68c0-4.4-1-7.4-2.9-9c-1.9-1.6-4.3-2.4-7.2-2.4c-1,0-1.8,0-2.3,0.1c-0.6,0.1-1.1,0.2-1.6,0.3v63.1H97
			l-25,46.8c0.4,0.3,0.8,0.7,1.3,1c0.5,0.3,1.1,0.7,2,1.2c2.5,1.3,5,1.8,7.4,1.2c2.5-0.5,4.7-2.7,6.7-6.5l23.3-43.7h0.5l23.3,43.7
			c2,3.8,4.3,6,6.7,6.5c2.4,0.5,4.9,0.1,7.4-1.2c0.9-0.5,1.5-0.9,2-1.2c0.5-0.3,0.9-0.6,1.3-1l-25-46.8h32.6V56.8z"/>
	</g>
	<g>
		<path class="st0" d="M299.8,104c0.3,7.4,2.3,13.4,5.9,17.9c3.6,4.5,9.2,6.8,16.7,6.8c2.8,0,5.4-0.3,7.6-0.9
			c2.2-0.6,4.2-1.3,5.8-2.2c1.6-0.9,3-1.8,4-2.8c1.1-1,2-1.9,2.7-2.7c1.1,1.4,2.1,3,3,4.6c0.9,1.6,1.3,2.9,1.3,3.8
			c0,0.8-0.3,1.7-0.8,2.5c-0.5,0.9-1.4,1.8-2.6,2.7c-2.3,1.7-5.3,3.2-9,4.3s-8.1,1.8-13.3,1.8c-4.8,0-9.3-0.7-13.5-2.1
			c-4.2-1.4-7.9-3.6-11.1-6.6c-3.2-3.1-5.6-7-7.5-12c-1.8-4.9-2.7-11-2.7-18.1c0-6.4,0.9-12,2.8-16.6c1.9-4.7,4.3-8.5,7.4-11.5
			c3.1-3,6.5-5.2,10.5-6.6c3.9-1.4,8-2.1,12.1-2.1c5.2,0,9.6,0.9,13.4,2.6c3.7,1.7,6.7,4,9.1,6.9c2.3,2.9,4.1,6.3,5.2,10.1
			c1.1,3.8,1.7,7.8,1.7,11.8c0,1.4,0,2.9-0.1,4.3c-0.1,1.5-0.2,2.9-0.4,4.2H299.8z M335.5,94.2c0-2.7-0.3-5.3-0.8-7.6
			c-0.6-2.3-1.5-4.4-2.8-6.2c-1.3-1.8-3.1-3.2-5.3-4.2c-2.2-1-4.9-1.5-8-1.5c-5.3,0-9.6,1.7-13,5.2c-3.4,3.5-5.3,8.2-5.7,14.3H335.5
			z"/>
		<path class="st0" d="M357.3,66.4c2.4-0.8,4.7-1.2,6.9-1.2c3.1,0,5.3,0.9,6.8,2.8c1.5,1.9,2.8,4.6,3.9,8.2l16.3,48.5l16.6-47.9
			c1.2-3.8,2.6-6.6,4-8.6c1.5-2,3.8-3,6.9-3c1.2,0,2.4,0.1,3.4,0.4c1.1,0.3,2,0.6,2.7,1L397.4,138h-13.3L357.3,66.4z"/>
		<path class="st0" d="M436,42.2c0-2.5,0.8-4.6,2.4-6.3c1.6-1.6,3.5-2.4,5.9-2.4c2.3,0,4.3,0.8,5.9,2.4c1.6,1.6,2.4,3.7,2.4,6.3
			c0,2.3-0.8,4.3-2.4,5.9c-1.6,1.6-3.5,2.4-5.9,2.4c-2.3,0-4.3-0.8-5.9-2.4C436.8,46.5,436,44.5,436,42.2z M438.3,64.9
			c0.7-0.1,1.3-0.2,1.8-0.2c0.5,0,0.8,0,1,0c3.1,0,5.5,0.8,7.4,2.3c1.9,1.5,2.8,4.2,2.8,8.1v48.5c0,3,0.4,5,1.3,6.3
			c0.9,1.2,2.9,1.8,6,1.8v5.5c-0.9,0.3-2.2,0.6-3.7,0.8c-1.6,0.2-3.1,0.3-4.7,0.3c-3,0-5.2-0.5-6.8-1.4c-1.6-0.9-2.7-2.1-3.5-3.7
			c-0.8-1.5-1.2-3.2-1.4-5.1c-0.2-1.9-0.2-3.7-0.2-5.6V64.9z"/>
		<path class="st0" d="M522.1,131.3c-0.8,0.8-1.8,1.7-3.1,2.7c-1.2,1-2.7,1.9-4.3,2.7c-1.7,0.8-3.6,1.5-5.7,2.1
			c-2.1,0.6-4.5,0.8-7,0.8c-4,0-7.8-0.7-11.4-2c-3.7-1.3-6.9-3.4-9.7-6.3c-2.8-2.9-5-6.7-6.6-11.4c-1.6-4.7-2.4-10.5-2.4-17.3
			c0-6.7,0.8-12.5,2.5-17.4s3.9-8.9,6.7-12c2.8-3.1,6.1-5.4,9.8-6.9c3.7-1.5,7.6-2.3,11.5-2.3c4.6,0,8.5,0.8,11.7,2.3
			c3.2,1.5,5.8,3.3,7.9,5.2V29.2c0.7-0.1,1.3-0.2,1.8-0.2c0.5,0,0.8,0,1,0c3.1,0,5.5,0.8,7.4,2.3c1.9,1.5,2.8,4.2,2.8,8.1v98h-12.7
			V131.3z M521.8,82.9h0.2c-0.6-0.6-1.4-1.3-2.4-2.2c-1-0.9-2.2-1.7-3.7-2.6c-1.5-0.9-3.2-1.6-5.1-2.1c-1.9-0.6-4.1-0.8-6.6-0.8
			c-5.8,0-10.4,2.2-13.7,6.5c-3.4,4.3-5,10.8-5,19.5c0,4,0.3,7.6,0.9,11c0.6,3.4,1.7,6.3,3.2,8.8c1.5,2.5,3.5,4.4,6,5.8
			c2.5,1.4,5.6,2.1,9.2,2.1c2.4,0,4.7-0.3,6.8-0.9c2.1-0.6,3.9-1.4,5.4-2.3c1.5-0.9,2.7-2,3.5-3.2c0.8-1.2,1.2-2.4,1.2-3.7V82.9z"/>
		<path class="st0" d="M566.8,104c0.3,7.4,2.3,13.4,5.9,17.9c3.6,4.5,9.2,6.8,16.7,6.8c2.8,0,5.4-0.3,7.6-0.9
			c2.2-0.6,4.2-1.3,5.8-2.2c1.6-0.9,3-1.8,4-2.8c1.1-1,2-1.9,2.7-2.7c1.1,1.4,2.1,3,3,4.6c0.9,1.6,1.3,2.9,1.3,3.8
			c0,0.8-0.3,1.7-0.8,2.5c-0.5,0.9-1.4,1.8-2.6,2.7c-2.3,1.7-5.3,3.2-9,4.3s-8.1,1.8-13.3,1.8c-4.8,0-9.3-0.7-13.5-2.1
			c-4.2-1.4-7.9-3.6-11.1-6.6c-3.2-3.1-5.6-7-7.5-12c-1.8-4.9-2.7-11-2.7-18.1c0-6.4,0.9-12,2.8-16.6c1.9-4.7,4.3-8.5,7.4-11.5
			c3.1-3,6.5-5.2,10.5-6.6c3.9-1.4,8-2.1,12.1-2.1c5.2,0,9.6,0.9,13.4,2.6c3.7,1.7,6.7,4,9.1,6.9c2.3,2.9,4.1,6.3,5.2,10.1
			c1.1,3.8,1.7,7.8,1.7,11.8c0,1.4,0,2.9-0.1,4.3c-0.1,1.5-0.2,2.9-0.4,4.2H566.8z M602.5,94.2c0-2.7-0.3-5.3-0.8-7.6
			c-0.6-2.3-1.5-4.4-2.8-6.2c-1.3-1.8-3.1-3.2-5.3-4.2c-2.2-1-4.9-1.5-8-1.5c-5.3,0-9.6,1.7-13,5.2c-3.4,3.5-5.3,8.2-5.7,14.3H602.5
			z"/>
		<path class="st0" d="M633.3,65.3c0.7-0.1,1.3-0.2,1.7-0.2c0.4,0,0.7,0,0.9,0c2.3,0,4.4,0.6,6.3,1.8c1.9,1.2,3,3.2,3.4,6
			c2.3-2.3,5.5-4.4,9.5-6.3c4-1.8,8.8-2.7,14.3-2.7c6.9,0,12.2,1.5,15.9,4.6c3.7,3.1,6.1,6.9,7.2,11.4c0.5,2,0.8,4.3,0.9,6.8
			c0.1,2.5,0.2,4.9,0.2,7.2v43.3h-13V94.5c0-1.9,0-3.8-0.1-5.6c-0.1-1.8-0.3-3.4-0.8-5c-0.8-2.6-2.3-4.7-4.5-6.1
			c-2.2-1.4-5.5-2.1-9.8-2.1c-3,0-5.6,0.3-7.9,0.9c-2.3,0.6-4.3,1.4-6,2.4c-1.6,1-2.9,2.2-3.8,3.5c-0.9,1.3-1.4,2.6-1.4,4v50.8h-13
			V65.3z"/>
		<path class="st0" d="M715.9,43.7c0.7-0.1,1.3-0.2,1.8-0.2s0.8,0,1,0c3.1,0,5.5,0.8,7.4,2.3c1.9,1.5,2.8,4.2,2.8,8.1v11.8h22.7v11
			h-22.7V116c0,8.3,3.3,12.5,9.9,12.5c1.6,0,3.2-0.3,4.6-0.8c1.4-0.6,2.7-1.2,3.9-2c1.2-0.8,2.1-1.5,2.8-2.2
			c0.7-0.7,1.2-1.2,1.4-1.5c1.2,1.5,2.3,3,3.1,4.4c0.9,1.4,1.3,2.8,1.3,4.1c0,0.9-0.5,1.9-1.4,3c-0.9,1.1-2.2,2.1-3.8,3
			c-1.6,0.9-3.6,1.7-6,2.3c-2.4,0.6-5,0.9-7.9,0.9c-5.3,0-9.5-1-12.7-3.1c-3.2-2-5.4-4.8-6.7-8.4c-0.7-1.9-1.1-4-1.3-6.3
			c-0.2-2.3-0.2-4.6-0.2-6.8V43.7z"/>
	</g>
	<g>
		<path class="st0" d="M396.3,177.7c-0.3-0.5-0.5-1-0.7-1.5c-0.2-0.5-0.3-1-0.3-1.3c0-0.5,0.3-0.9,0.9-1.3c0.6-0.4,1.3-0.8,2.2-1.1
			s1.9-0.6,3-0.7c1.1-0.2,2.2-0.3,3.3-0.3c1.8,0,3.3,0.2,4.6,0.6c1.2,0.4,2.2,1,2.9,1.8s1.3,1.8,1.6,2.9c0.3,1.2,0.5,2.5,0.5,4.1
			v10.5c0,0.9,0,1.5,0.1,2c0.1,0.5,0.2,0.8,0.4,1.1c0.2,0.2,0.5,0.4,0.8,0.5c0.3,0.1,0.8,0.1,1.3,0.1v2.1c-0.3,0.1-0.7,0.2-1.2,0.3
			c-0.5,0.1-0.9,0.1-1.4,0.1c-1.1,0-2.1-0.2-2.9-0.7c-0.8-0.4-1.3-1.2-1.4-2.4c-0.9,0.9-2,1.7-3.2,2.3c-1.2,0.6-2.9,0.9-4.9,0.9
			c-0.9,0-1.9-0.1-2.8-0.3c-0.9-0.2-1.8-0.6-2.6-1.2c-0.8-0.6-1.4-1.3-1.9-2.3c-0.5-1-0.7-2.2-0.7-3.7c0-1.9,0.5-3.4,1.4-4.6
			c0.9-1.2,2.1-2.1,3.5-2.8c1.4-0.7,2.9-1.1,4.5-1.4s3-0.4,4.4-0.4c0.3,0,0.7,0,1.1,0c0.4,0,0.8,0,1.1,0.1v-0.8
			c0-1.6-0.4-2.8-1.2-3.7c-0.8-0.8-2.2-1.3-4.4-1.3c-1.6,0-3,0.2-4.1,0.6s-2.2,1-3.2,1.7H396.3z M409.8,184.6h-1.6
			c-1.1,0-2.3,0.1-3.5,0.2c-1.2,0.1-2.2,0.4-3.2,0.8c-1,0.4-1.7,0.9-2.4,1.7c-0.6,0.7-0.9,1.6-0.9,2.7c0,1.1,0.3,2,1,2.8
			c0.6,0.8,1.8,1.2,3.6,1.2c0.9,0,1.8-0.1,2.7-0.4c0.8-0.3,1.6-0.6,2.2-1s1.2-0.8,1.5-1.3c0.4-0.5,0.6-0.9,0.6-1.3V184.6z"/>
		<path class="st0" d="M438.8,195.1c-0.3,0.3-0.6,0.6-1.1,1c-0.4,0.4-0.9,0.7-1.5,1c-0.6,0.3-1.3,0.5-2,0.7
			c-0.7,0.2-1.6,0.3-2.5,0.3c-1.4,0-2.7-0.2-4-0.7c-1.3-0.5-2.4-1.2-3.4-2.2c-1-1-1.8-2.4-2.3-4c-0.6-1.7-0.9-3.7-0.9-6.1
			c0-2.4,0.3-4.4,0.9-6.1c0.6-1.7,1.4-3.1,2.4-4.2c1-1.1,2.1-1.9,3.4-2.4c1.3-0.5,2.7-0.8,4-0.8c1.6,0,3,0.3,4.1,0.8s2,1.1,2.8,1.8
			v-14.8c0.2,0,0.5-0.1,0.6-0.1s0.3,0,0.3,0c1.1,0,1.9,0.3,2.6,0.8c0.7,0.5,1,1.5,1,2.8v34.4h-4.4V195.1z M438.7,178.1L438.7,178.1
			c-0.2-0.2-0.4-0.5-0.8-0.8c-0.3-0.3-0.8-0.6-1.3-0.9c-0.5-0.3-1.1-0.6-1.8-0.7c-0.7-0.2-1.4-0.3-2.3-0.3c-2,0-3.6,0.8-4.8,2.3
			c-1.2,1.5-1.8,3.8-1.8,6.8c0,1.4,0.1,2.7,0.3,3.9c0.2,1.2,0.6,2.2,1.1,3.1c0.5,0.9,1.2,1.6,2.1,2c0.9,0.5,2,0.7,3.2,0.7
			c0.9,0,1.7-0.1,2.4-0.3c0.7-0.2,1.4-0.5,1.9-0.8c0.5-0.3,0.9-0.7,1.2-1.1c0.3-0.4,0.4-0.9,0.4-1.3V178.1z"/>
		<path class="st0" d="M448,172.4c0.9-0.3,1.7-0.4,2.4-0.4c1.1,0,1.9,0.3,2.4,1c0.5,0.7,1,1.6,1.4,2.9l5.7,17l5.8-16.8
			c0.4-1.3,0.9-2.3,1.4-3c0.5-0.7,1.3-1,2.4-1c0.4,0,0.8,0,1.2,0.1c0.4,0.1,0.7,0.2,0.9,0.3l-9.6,25.1h-4.7L448,172.4z"/>
		<path class="st0" d="M497.9,184.6c0,1.8-0.2,3.4-0.6,5.1s-1.1,3.1-2.1,4.3c-0.9,1.2-2.2,2.2-3.7,3c-1.5,0.8-3.3,1.1-5.5,1.1
			c-2.1,0-3.9-0.4-5.4-1.1c-1.5-0.7-2.7-1.7-3.6-2.9c-0.9-1.2-1.6-2.6-2-4.2c-0.4-1.6-0.6-3.3-0.6-5.2c0-1.8,0.2-3.5,0.7-5.1
			c0.5-1.6,1.2-3,2.2-4.2c1-1.2,2.2-2.1,3.7-2.9c1.5-0.7,3.2-1.1,5.2-1.1c2.1,0,3.8,0.4,5.3,1.1c1.5,0.7,2.7,1.7,3.6,2.9
			c0.9,1.2,1.6,2.6,2,4.2C497.7,181.2,497.9,182.8,497.9,184.6z M493.1,184.6c0-1.1-0.1-2.2-0.3-3.3c-0.2-1.1-0.5-2.1-1-2.9
			c-0.5-0.9-1.2-1.6-2.1-2.1c-0.9-0.5-2.1-0.8-3.5-0.8c-1.4,0-2.5,0.3-3.4,0.8c-0.9,0.5-1.6,1.2-2.2,2.1c-0.5,0.9-0.9,1.9-1.2,2.9
			c-0.2,1.1-0.3,2.2-0.3,3.3s0.1,2.2,0.3,3.3c0.2,1.1,0.6,2.2,1.1,3.1c0.5,0.9,1.2,1.7,2.1,2.3c0.9,0.6,2,0.9,3.4,0.9
			c1.4,0,2.6-0.3,3.5-0.9c0.9-0.6,1.6-1.3,2.1-2.2c0.5-0.9,0.8-1.9,1-3.1C493,186.8,493.1,185.7,493.1,184.6z"/>
		<path class="st0" d="M521.7,178.4c-0.6-0.7-1.4-1.4-2.4-2c-1-0.6-2.3-0.9-3.9-0.9c-1.4,0-2.5,0.2-3.5,0.7c-1,0.5-1.8,1.1-2.4,2
			c-0.6,0.8-1.1,1.8-1.4,2.9c-0.3,1.1-0.4,2.3-0.4,3.6c0,1.3,0.1,2.6,0.4,3.7c0.3,1.2,0.7,2.2,1.4,3c0.6,0.9,1.4,1.5,2.4,2
			c1,0.5,2.2,0.8,3.6,0.8c1,0,1.8-0.2,2.6-0.5c0.8-0.3,1.4-0.7,2-1c0.7-0.5,1.3-1,1.7-1.5c0.1,0.1,0.3,0.3,0.5,0.6
			c0.2,0.2,0.4,0.5,0.6,0.7c0.2,0.3,0.4,0.5,0.5,0.8c0.1,0.3,0.2,0.6,0.2,0.8c0,0.5-0.4,1.1-1.1,1.7c-0.7,0.6-1.7,1.1-2.9,1.6
			c-1.3,0.4-2.8,0.6-4.6,0.6c-1.1,0-2.4-0.2-3.8-0.5c-1.4-0.3-2.7-1-3.9-1.9c-1.2-1-2.2-2.3-3-4c-0.8-1.7-1.2-4-1.2-6.9
			c0-2.6,0.4-4.8,1.3-6.5c0.9-1.7,1.9-3.1,3.2-4c1.2-1,2.6-1.7,4-2.1c1.4-0.4,2.7-0.6,3.7-0.6c1.3,0,2.4,0.1,3.5,0.4s1.9,0.6,2.6,1
			c0.7,0.4,1.3,0.8,1.7,1.3c0.4,0.5,0.6,0.9,0.6,1.3c0,0.4-0.1,0.9-0.4,1.4c-0.3,0.5-0.6,1-0.9,1.4H521.7z"/>
		<path class="st0" d="M530.1,177.7c-0.3-0.5-0.5-1-0.7-1.5c-0.2-0.5-0.3-1-0.3-1.3c0-0.5,0.3-0.9,0.9-1.3c0.6-0.4,1.3-0.8,2.2-1.1
			s1.9-0.6,3-0.7c1.1-0.2,2.2-0.3,3.3-0.3c1.8,0,3.3,0.2,4.6,0.6c1.2,0.4,2.2,1,2.9,1.8c0.8,0.8,1.3,1.8,1.6,2.9
			c0.3,1.2,0.5,2.5,0.5,4.1v10.5c0,0.9,0,1.5,0.1,2c0.1,0.5,0.2,0.8,0.4,1.1c0.2,0.2,0.5,0.4,0.8,0.5c0.3,0.1,0.8,0.1,1.3,0.1v2.1
			c-0.3,0.1-0.7,0.2-1.2,0.3c-0.5,0.1-0.9,0.1-1.4,0.1c-1.1,0-2.1-0.2-2.9-0.7c-0.8-0.4-1.3-1.2-1.4-2.4c-0.9,0.9-2,1.7-3.2,2.3
			c-1.2,0.6-2.9,0.9-4.9,0.9c-0.9,0-1.9-0.1-2.8-0.3c-0.9-0.2-1.8-0.6-2.6-1.2c-0.8-0.6-1.4-1.3-1.9-2.3c-0.5-1-0.8-2.2-0.8-3.7
			c0-1.9,0.5-3.4,1.4-4.6c0.9-1.2,2.1-2.1,3.5-2.8c1.4-0.7,2.9-1.1,4.5-1.4c1.6-0.2,3-0.4,4.4-0.4c0.3,0,0.7,0,1.1,0
			c0.4,0,0.8,0,1.1,0.1v-0.8c0-1.6-0.4-2.8-1.2-3.7s-2.2-1.3-4.4-1.3c-1.6,0-3,0.2-4.1,0.6c-1.1,0.4-2.2,1-3.2,1.7H530.1z
			 M543.6,184.6H542c-1.1,0-2.3,0.1-3.5,0.2c-1.2,0.1-2.2,0.4-3.2,0.8c-1,0.4-1.8,0.9-2.4,1.7c-0.6,0.7-0.9,1.6-0.9,2.7
			c0,1.1,0.3,2,1,2.8c0.6,0.8,1.8,1.2,3.6,1.2c0.9,0,1.8-0.1,2.7-0.4c0.8-0.3,1.6-0.6,2.2-1s1.2-0.8,1.5-1.3s0.6-0.9,0.6-1.3V184.6z
			"/>
		<path class="st0" d="M556.1,164.4c0.2,0,0.5-0.1,0.6-0.1c0.2,0,0.3,0,0.3,0c1.1,0,1.9,0.3,2.6,0.8c0.7,0.5,1,1.5,1,2.8v4.1h8v3.9
			h-8v13.8c0,2.9,1.2,4.4,3.5,4.4c0.6,0,1.1-0.1,1.6-0.3c0.5-0.2,1-0.4,1.4-0.7c0.4-0.3,0.7-0.5,1-0.8c0.2-0.2,0.4-0.4,0.5-0.5
			c0.4,0.5,0.8,1.1,1.1,1.6c0.3,0.5,0.5,1,0.5,1.4c0,0.3-0.2,0.7-0.5,1s-0.8,0.7-1.3,1s-1.3,0.6-2.1,0.8c-0.8,0.2-1.8,0.3-2.8,0.3
			c-1.9,0-3.3-0.4-4.4-1.1c-1.1-0.7-1.9-1.7-2.4-2.9c-0.2-0.7-0.4-1.4-0.5-2.2c-0.1-0.8-0.1-1.6-0.1-2.4V164.4z"/>
		<path class="st0" d="M575,171.8c0.2,0,0.5-0.1,0.6-0.1c0.2,0,0.3,0,0.3,0c1.1,0,1.9,0.3,2.6,0.8s1,1.5,1,2.8v12.5
			c0,1.4,0.1,2.5,0.3,3.3c0.2,0.8,0.6,1.4,1.2,1.9c0.5,0.4,1.1,0.7,1.7,0.8c0.6,0.1,1.3,0.2,2.2,0.2c1,0,1.8-0.1,2.7-0.4
			c0.8-0.3,1.5-0.6,2.1-1c0.6-0.4,1-0.8,1.3-1.3s0.5-0.8,0.5-1.2v-18.4c0.2,0,0.5-0.1,0.6-0.1c0.2,0,0.3,0,0.3,0
			c1.1,0,1.9,0.3,2.6,0.8c0.7,0.5,1,1.5,1,2.8v21.8h-4.6v-2.4c-0.7,0.8-1.7,1.6-3,2.2c-1.3,0.6-2.9,1-5,1c-2.1,0-3.7-0.3-4.8-1
			c-1.1-0.6-2-1.5-2.5-2.5c-0.6-1-0.9-2.1-1-3.3c-0.1-1.2-0.2-2.3-0.2-3.5V171.8z"/>
		<path class="st0" d="M603.8,171.8c0.2,0,0.5-0.1,0.6-0.1c0.2,0,0.3,0,0.3,0c1.1,0,1.9,0.3,2.6,0.8s1,1.5,1,2.8v12.5
			c0,1.4,0.1,2.5,0.3,3.3c0.2,0.8,0.6,1.4,1.2,1.9c0.5,0.4,1.1,0.7,1.7,0.8c0.6,0.1,1.3,0.2,2.2,0.2c1,0,1.8-0.1,2.7-0.4
			c0.8-0.3,1.5-0.6,2.1-1c0.6-0.4,1-0.8,1.3-1.3s0.5-0.8,0.5-1.2v-18.4c0.2,0,0.5-0.1,0.6-0.1c0.2,0,0.3,0,0.3,0
			c1.1,0,1.9,0.3,2.6,0.8c0.7,0.5,1,1.5,1,2.8v21.8h-4.6v-2.4c-0.7,0.8-1.7,1.6-3,2.2c-1.3,0.6-2.9,1-5,1c-2.1,0-3.7-0.3-4.8-1
			c-1.1-0.6-2-1.5-2.5-2.5c-0.6-1-0.9-2.1-1-3.3c-0.1-1.2-0.2-2.3-0.2-3.5V171.8z"/>
		<path class="st0" d="M632.8,172c0.3,0,0.5-0.1,0.7-0.1c0.2,0,0.3,0,0.3,0c0.8,0,1.6,0.2,2.2,0.6c0.7,0.4,1.1,1.1,1.2,2.1
			c0.5-0.8,1.2-1.5,2.2-2.1c1-0.7,2.2-1,3.5-1c0.4,0,0.8,0,1.3,0.1c0.4,0.1,0.9,0.2,1.3,0.3c0.4,0.2,0.7,0.4,1,0.7
			c0.2,0.3,0.4,0.7,0.4,1.1c0,0.6-0.1,1.2-0.4,1.8c-0.3,0.7-0.6,1.2-0.9,1.6c-0.5-0.4-1-0.8-1.5-1c-0.5-0.2-1.2-0.3-2-0.3
			c-0.6,0-1.2,0.1-1.7,0.3c-0.6,0.2-1,0.5-1.5,0.8c-0.4,0.3-0.8,0.7-1,1.2c-0.2,0.4-0.4,0.9-0.4,1.3v17.8h-4.6V172z"/>
	</g>
</g>
<g id="txt" class="st2">
	
		<text transform="matrix(1 0 0 1 229.954 387.8218)" style="display:inline;fill:#7B7C7A; font-family:'Foco-Regular'; font-size:152.5897px;">evident</text>
	
		<text transform="matrix(1 0 0 1 342.3983 447.7065)" style="display:inline;fill:#69A0A2; font-family:'Foco-Regular'; font-size:53.5456px;">advocatuur</text>
</g>
</svg>
